<svg>
  <defs
     id="defs828" />
  <sodipodi:namedview
     id="namedview826"
     pagecolor="#ffffff"
     bordercolor="#666666"
     borderopacity="1.0"
     inkscape:pageshadow="2"
     inkscape:pageopacity="0.0"
     inkscape:pagecheckerboard="0"
     showgrid="false"
     inkscape:zoom="1.9518704"
     inkscape:cx="137.81653"
     inkscape:cy="161.1275"
     inkscape:window-width="1920"
     inkscape:window-height="1009"
     inkscape:window-x="1912"
     inkscape:window-y="-8"
     inkscape:window-maximized="1"
     inkscape:current-layer="g830" />
  <g
     inkscape:groupmode="layer"
     inkscape:label="Image"
     id="g830">
    <path
       style="fill:#000000;stroke-width:1.11628"
       d="M 124.97744,135.98799 C 76.992641,132.07489 34.394893,117.32387 14.553556,97.749695 4.8603583,88.187015 1.0704683,80.138995 1.0704683,69.117685 c 0,-11.27479 3.759897,-19.0941 13.9557717,-29.02326 16.43823,-16.00822 46.246605,-28.22584 84.276784,-34.5427098 87.512326,-14.53592 183.806626,8.4392298 203.259106,48.4961998 2.70804,5.57648 3.25252,8.09916 3.25252,15.06977 0,11.02131 -3.78989,19.06933 -13.48309,28.63201 -28.2797,27.898915 -98.2094,43.876955 -167.35412,38.238295 z m 53.69836,-11.09335 c 40.9016,-3.27701 75.89569,-13.35367 96.97129,-27.923215 16.19827,-11.19785 22.61366,-23.93901 17.83684,-35.42448 -2.9479,-7.08799 -7.45783,-12.63947 -14.75697,-18.16507 C 226.2732,3.6733552 91.190194,1.8622452 33.163872,40.089525 c -10.626753,7.00082 -15.589507,12.22875 -19.235251,20.26307 -5.6551817,12.46263 0.750278,25.52009 18.22201,37.14538 C 63.85171,118.59115 121.89507,129.44385 178.6758,124.89464 Z M 63.35866,102.8284 C 51.232473,98.495505 43.505289,90.346635 39.960652,78.153505 c -4.573484,-15.73222 3.403875,-33.05315 18.914571,-41.06846 8.34135,-4.31047 20.981391,-4.39738 29.919691,-0.20571 7.93097,3.71928 13.916816,9.70762 17.622846,17.63018 6.02355,12.87683 3.02631,29.50898 -7.151946,39.68724 -9.07923,9.079235 -24.36852,12.754595 -35.907154,8.631645 z M 81.280366,92.468575 c 8.902908,-2.47207 17.464518,-13.91936 17.464518,-23.35089 0,-5.88838 -3.43993,-13.19498 -8.33757,-17.70947 -10.194481,-9.39695 -23.228233,-9.07727 -33.117769,0.81226 -9.980466,9.98047 -10.211657,23.14657 -0.584708,33.29856 6.902731,7.2792 15.070325,9.58886 24.575529,6.94954 z M 221.87028,102.8284 c -12.12619,-4.332895 -19.85337,-12.481765 -23.39801,-24.674895 -4.57348,-15.73222 3.40388,-33.05315 18.91458,-41.06846 8.34134,-4.31047 20.98138,-4.39738 29.91968,-0.20571 22.43846,10.52265 27.81804,39.97029 10.47091,57.31742 -9.07923,9.079235 -24.36852,12.754595 -35.90716,8.631645 z m 18.0839,-10.401135 c 2.76192,-0.7646 6.43958,-3.21057 9.6414,-6.41238 10.24872,-10.24872 10.24872,-23.54568 0,-33.79441 -10.24873,-10.24872 -23.54569,-10.24872 -33.79442,0 -9.98046,9.98047 -10.21165,23.14657 -0.5847,33.29856 6.94497,7.32375 15.05539,9.58865 24.73772,6.90823 z"
       id="path932" />
  </g>
</svg>
